<svg width="26" height="26" viewBox="0 0 26 26" fill="none" xmlns="http://www.w3.org/2000/svg">
<path d="M24.2146 17.749C23.6059 19.183 21.5769 19.6359 20.5307 20.6629C19.4462 21.7273 18.9396 23.736 17.5523 24.2965C16.165 24.857 14.4061 23.7643 12.8857 23.7517C11.4197 23.7397 9.64476 24.823 8.21156 24.2146C6.77835 23.6062 6.32461 21.5769 5.2976 20.5307C4.23321 19.4462 2.2245 18.9396 1.66399 17.5523C1.10347 16.165 2.19618 14.4061 2.20882 12.8857C2.22146 11.3654 1.1372 9.64559 1.74591 8.21156C2.35462 6.77753 4.38357 6.32461 5.4298 5.2976C6.51431 4.23321 7.02086 2.2245 8.40819 1.66399C9.79551 1.10347 11.5544 2.19618 13.0748 2.20882C14.5951 2.22146 16.3149 1.1372 17.749 1.74591C19.183 2.35462 19.6359 4.38357 20.6629 5.4298C21.7273 6.5143 23.736 7.02086 24.2965 8.40819C24.857 9.79551 23.7643 11.5544 23.7517 13.0748C23.7397 14.5408 24.823 16.3157 24.2146 17.749Z" stroke="#BBDB9B" stroke-miterlimit="10"/>
<path d="M23.2159 19.6274C22.3675 20.934 20.2907 21.0277 19.082 21.8574C17.8291 22.7173 16.9815 24.6075 15.5179 24.9186C14.0543 25.2297 12.5119 23.8482 11.0168 23.5717C9.57515 23.3053 7.63906 24.0639 6.33327 23.2159C5.02748 22.368 4.93301 20.2907 4.10327 19.082C3.24338 17.8292 1.35315 16.9815 1.04206 15.5179C0.730967 14.0543 2.11251 12.5119 2.38896 11.0168C2.66542 9.52178 1.89627 7.63982 2.74475 6.33328C3.59323 5.02674 5.67 4.93302 6.87867 4.10329C8.13153 3.24339 8.9792 1.35317 10.4428 1.04207C11.9064 0.730981 13.4488 2.11252 14.9439 2.38898C16.4389 2.66543 18.3209 1.89628 19.6274 2.74476C20.934 3.59324 21.0277 5.67001 21.8574 6.87868C22.7173 8.13154 24.6075 8.97921 24.9186 10.4428C25.2297 11.9064 23.8482 13.4488 23.5717 14.9439C23.3053 16.3855 24.0639 18.3216 23.2159 19.6274Z" stroke="#93BEFF" stroke-miterlimit="10"/>
<path d="M21.9061 21.3038C20.8437 22.4431 18.7822 22.1748 17.4478 22.7821C16.0646 23.4113 14.9016 25.1256 13.4062 25.1779C11.9109 25.2301 10.6318 23.6017 9.20742 23.0698C7.83392 22.5571 5.79551 22.968 4.65681 21.9061C3.51811 20.8443 3.78579 18.7822 3.17854 17.4478C2.54927 16.0646 0.834958 14.9016 0.782739 13.4063C0.730519 11.9109 2.35892 10.6318 2.89078 9.20744C3.42265 7.78311 2.99198 5.79619 4.05445 4.65683C5.11692 3.51747 7.17841 3.78581 8.5128 3.17856C9.89595 2.54929 11.059 0.834978 12.5543 0.782758C14.0497 0.730539 15.3288 2.35894 16.7532 2.8908C18.1775 3.42267 20.1644 2.992 21.3038 4.05447C22.4431 5.11694 22.1748 7.17843 22.782 8.51282C23.4113 9.89597 25.1256 11.059 25.1778 12.5544C25.2301 14.0497 23.6017 15.3288 23.0698 16.7532C22.5571 18.1267 22.968 20.1651 21.9061 21.3038Z" stroke="#B3A7FF" stroke-miterlimit="10"/>
<path d="M24.8721 15.7258C24.5216 17.2437 22.6022 18.0421 21.7502 19.2352C20.867 20.4717 20.7169 22.5378 19.448 23.3308C18.1791 24.1237 16.2571 23.353 14.7577 23.6045C13.3119 23.8473 11.752 25.2223 10.2349 24.8721C8.71786 24.5218 7.91862 22.6022 6.72553 21.7502C5.489 20.867 3.42284 20.7169 2.62994 19.448C1.83703 18.1791 2.6077 16.2571 2.35615 14.7577C2.10459 13.2583 0.738163 11.7529 1.08861 10.2349C1.43905 8.71697 3.35853 7.91861 4.21052 6.72552C5.09373 5.48898 5.24378 3.42283 6.51269 2.62992C7.78161 1.83702 9.70356 2.60769 11.203 2.35613C12.7024 2.10458 14.2078 0.73815 15.7258 1.0886C17.2437 1.43904 18.0421 3.35852 19.2352 4.21051C20.4717 5.09371 22.5379 5.24377 23.3308 6.51268C24.1237 7.78159 23.353 9.70355 23.6046 11.203C23.8473 12.6488 25.2223 14.2087 24.8721 15.7258Z" stroke="#FFCD88" stroke-miterlimit="10"/>
<path d="M25.1681 13.619C25.0866 15.1748 23.3349 16.2943 22.703 17.6172C22.048 18.9883 22.259 21.0492 21.147 22.0504C20.0351 23.0516 18.0085 22.6263 16.5755 23.1345C15.1938 23.6246 13.8964 25.2496 12.3416 25.1681C10.7867 25.0866 9.66629 23.3349 8.34338 22.703C6.97226 22.048 4.91144 22.259 3.91024 21.147C2.90903 20.0351 3.33425 18.0085 2.82615 16.5755C2.31804 15.1425 0.710958 13.8973 0.79249 12.3416C0.874023 10.7858 2.6257 9.66627 3.25757 8.34336C3.91264 6.97224 3.70163 4.91142 4.81358 3.91022C5.92553 2.90901 7.95211 3.33423 9.38508 2.82613C10.8181 2.31802 12.0633 0.710938 13.619 0.792471C15.1748 0.874003 16.2943 2.62568 17.6172 3.25755C18.9884 3.91262 21.0492 3.70161 22.0504 4.81356C23.0516 5.92551 22.6264 7.95209 23.1345 9.38506C23.6246 10.7668 25.2496 12.0642 25.1681 13.619Z" stroke="#FF9B9B" stroke-miterlimit="10"/>
<path d="M25 13C25 14.5318 23.3376 15.7212 22.7853 17.0526C22.2126 18.4326 22.5259 20.4453 21.4856 21.4856C20.4453 22.5259 18.4335 22.2126 17.0526 22.7853C15.7212 23.3376 14.5309 25 13 25C11.4691 25 10.2788 23.3376 8.94735 22.7853C7.56735 22.2126 5.55471 22.5259 4.51441 21.4856C3.47412 20.4453 3.78735 18.4335 3.21471 17.0526C2.64206 15.6718 1 14.5318 1 13C1 11.4682 2.66235 10.2788 3.21471 8.94735C3.78735 7.56735 3.47412 5.55471 4.51441 4.51441C5.55471 3.47412 7.56647 3.78735 8.94735 3.21471C10.3282 2.64206 11.4682 1 13 1C14.5318 1 15.7212 2.66235 17.0526 3.21471C18.4326 3.78735 20.4453 3.47412 21.4856 4.51441C22.5259 5.55471 22.2126 7.56647 22.7853 8.94735C23.3376 10.2788 25 11.4691 25 13Z" fill="#F9F9F9"/>
<path d="M12.7684 12.2184C13.0321 11.9354 13.2444 11.6073 13.4052 11.2599C13.4953 11.395 13.5918 11.5237 13.7011 11.6395C14.2543 12.2377 14.9941 12.5465 15.8946 12.5465C16.7952 12.5465 17.535 12.2377 18.0882 11.6395C19.0145 10.636 19.111 9.0664 19.111 8.38455V7.39392H17.8244V8.70618C17.7923 9.31084 17.6508 10.2178 17.1426 10.7646C16.8338 11.0991 16.4286 11.2599 15.8946 11.2599C15.3607 11.2599 14.9555 11.0991 14.6532 10.771C14.1836 10.2629 14.0163 9.4202 13.9649 8.78337V8.04362H12.6783V8.7898C12.6333 9.58101 12.4275 10.6939 11.8292 11.3371C11.4754 11.7166 11.0187 11.9032 10.4269 11.9032C9.83512 11.9032 9.3784 11.7166 9.03104 11.3436C8.35561 10.6231 8.20123 9.4009 8.1755 8.67401V7.39392H6.88898V8.39741C6.88898 9.20149 7.0112 11.0605 8.08545 12.2184C8.68368 12.8617 9.47489 13.1897 10.4269 13.1897C11.3789 13.1897 12.1702 12.8617 12.7684 12.2184Z" fill="#99715B"/>
<path d="M19.111 7.40017V6.11365L6.88898 6.11365V7.40017L19.111 7.40017Z" fill="#99715B"/>
<path d="M13.9648 17.3708V13.1896H12.6783V17.3708H13.9648Z" fill="#99715B"/>
<path d="M6.88898 19.9438V16.4059H8.1755V18.6573H17.8244V16.4059H19.111V19.9438H6.88898Z" fill="#99715B"/>
</svg>
