<svg width="57" height="66" viewBox="0 0 57 66" fill="none" xmlns="http://www.w3.org/2000/svg">
<path fill-rule="evenodd" clip-rule="evenodd" d="M13.2482 1.16616C14.4458 1.64297 15.0301 3.00037 14.5533 4.19802L5.5032 26.9301C5.02639 28.1277 3.66899 28.7121 2.47135 28.2353C1.2737 27.7585 0.689353 26.4011 1.16616 25.2034L10.2163 2.47135C10.6931 1.2737 12.0505 0.689353 13.2482 1.16616ZM48.7396 18.2527C49.5186 19.2798 49.3174 20.7439 48.2903 21.5228L23.6306 40.2243C22.6035 41.0033 21.1395 40.8021 20.3605 39.775C19.5816 38.7479 19.7828 37.2838 20.8099 36.5049L45.4695 17.8034C46.4966 17.0244 47.9607 17.2256 48.7396 18.2527ZM27.0979 56.691C27.3834 55.434 28.6338 54.6463 29.8909 54.9318L53.9248 60.3893C55.1818 60.6748 55.9695 61.9252 55.684 63.1823C55.3986 64.4394 54.1481 65.227 52.8911 64.9416L28.8572 59.484C27.6001 59.1985 26.8125 57.9481 27.0979 56.691Z" fill="#99715B" stroke="#99715B" stroke-width="2" stroke-linecap="round"/>
</svg>
