<svg width="1032" height="216" viewBox="0 0 1032 216" fill="none" xmlns="http://www.w3.org/2000/svg">
<path d="M13.1679 0.744643C12.9589 0.289286 12.5036 0 12 0C11.4964 0 11.0411 0.289286 10.8321 0.744643L7.64464 7.64464L0.744643 10.8321C0.289286 11.0411 0 11.4964 0 12C0 12.5036 0.289286 12.9589 0.744643 13.1679L7.64464 16.3554L10.8321 23.2554C11.0411 23.7107 11.4964 24 12 24C12.5036 24 12.9589 23.7107 13.1679 23.2554L16.3554 16.3554L23.2554 13.1679C23.7107 12.9589 24 12.5036 24 12C24 11.4964 23.7107 11.0411 23.2554 10.8321L16.3554 7.64464L13.1679 0.744643Z" fill="#F4E4BA"/>
<path d="M85.1679 0.744643C84.9589 0.289286 84.5036 0 84 0C83.4964 0 83.0411 0.289286 82.8321 0.744643L79.6446 7.64464L72.7446 10.8321C72.2893 11.0411 72 11.4964 72 12C72 12.5036 72.2893 12.9589 72.7446 13.1679L79.6446 16.3554L82.8321 23.2554C83.0411 23.7107 83.4964 24 84 24C84.5036 24 84.9589 23.7107 85.1679 23.2554L88.3554 16.3554L95.2554 13.1679C95.7107 12.9589 96 12.5036 96 12C96 11.4964 95.7107 11.0411 95.2554 10.8321L88.3554 7.64464L85.1679 0.744643Z" fill="#F4E4BA"/>
<path d="M157.168 0.744643C156.959 0.289286 156.504 0 156 0C155.496 0 155.041 0.289286 154.832 0.744643L151.645 7.64464L144.745 10.8321C144.289 11.0411 144 11.4964 144 12C144 12.5036 144.289 12.9589 144.745 13.1679L151.645 16.3554L154.832 23.2554C155.041 23.7107 155.496 24 156 24C156.504 24 156.959 23.7107 157.168 23.2554L160.355 16.3554L167.255 13.1679C167.711 12.9589 168 12.5036 168 12C168 11.4964 167.711 11.0411 167.255 10.8321L160.355 7.64464L157.168 0.744643Z" fill="#F4E4BA"/>
<path d="M229.168 0.744643C228.959 0.289286 228.504 0 228 0C227.496 0 227.041 0.289286 226.832 0.744643L223.645 7.64464L216.745 10.8321C216.289 11.0411 216 11.4964 216 12C216 12.5036 216.289 12.9589 216.745 13.1679L223.645 16.3554L226.832 23.2554C227.041 23.7107 227.496 24 228 24C228.504 24 228.959 23.7107 229.168 23.2554L232.355 16.3554L239.255 13.1679C239.711 12.9589 240 12.5036 240 12C240 11.4964 239.711 11.0411 239.255 10.8321L232.355 7.64464L229.168 0.744643Z" fill="#F4E4BA"/>
<path d="M301.168 0.744643C300.959 0.289286 300.504 0 300 0C299.496 0 299.041 0.289286 298.832 0.744643L295.645 7.64464L288.745 10.8321C288.289 11.0411 288 11.4964 288 12C288 12.5036 288.289 12.9589 288.745 13.1679L295.645 16.3554L298.832 23.2554C299.041 23.7107 299.496 24 300 24C300.504 24 300.959 23.7107 301.168 23.2554L304.355 16.3554L311.255 13.1679C311.711 12.9589 312 12.5036 312 12C312 11.4964 311.711 11.0411 311.255 10.8321L304.355 7.64464L301.168 0.744643Z" fill="#F4E4BA"/>
<path d="M373.168 0.744643C372.959 0.289286 372.504 0 372 0C371.496 0 371.041 0.289286 370.832 0.744643L367.645 7.64464L360.745 10.8321C360.289 11.0411 360 11.4964 360 12C360 12.5036 360.289 12.9589 360.745 13.1679L367.645 16.3554L370.832 23.2554C371.041 23.7107 371.496 24 372 24C372.504 24 372.959 23.7107 373.168 23.2554L376.355 16.3554L383.255 13.1679C383.711 12.9589 384 12.5036 384 12C384 11.4964 383.711 11.0411 383.255 10.8321L376.355 7.64464L373.168 0.744643Z" fill="#F4E4BA"/>
<path d="M445.168 0.744643C444.959 0.289286 444.504 0 444 0C443.496 0 443.041 0.289286 442.832 0.744643L439.645 7.64464L432.745 10.8321C432.289 11.0411 432 11.4964 432 12C432 12.5036 432.289 12.9589 432.745 13.1679L439.645 16.3554L442.832 23.2554C443.041 23.7107 443.496 24 444 24C444.504 24 444.959 23.7107 445.168 23.2554L448.355 16.3554L455.255 13.1679C455.711 12.9589 456 12.5036 456 12C456 11.4964 455.711 11.0411 455.255 10.8321L448.355 7.64464L445.168 0.744643Z" fill="#F4E4BA"/>
<path d="M517.168 0.744643C516.959 0.289286 516.504 0 516 0C515.496 0 515.041 0.289286 514.832 0.744643L511.645 7.64464L504.745 10.8321C504.289 11.0411 504 11.4964 504 12C504 12.5036 504.289 12.9589 504.745 13.1679L511.645 16.3554L514.832 23.2554C515.041 23.7107 515.496 24 516 24C516.504 24 516.959 23.7107 517.168 23.2554L520.355 16.3554L527.255 13.1679C527.711 12.9589 528 12.5036 528 12C528 11.4964 527.711 11.0411 527.255 10.8321L520.355 7.64464L517.168 0.744643Z" fill="#F4E4BA"/>
<path d="M589.168 0.744643C588.959 0.289286 588.504 0 588 0C587.496 0 587.041 0.289286 586.832 0.744643L583.645 7.64464L576.745 10.8321C576.289 11.0411 576 11.4964 576 12C576 12.5036 576.289 12.9589 576.745 13.1679L583.645 16.3554L586.832 23.2554C587.041 23.7107 587.496 24 588 24C588.504 24 588.959 23.7107 589.168 23.2554L592.355 16.3554L599.255 13.1679C599.711 12.9589 600 12.5036 600 12C600 11.4964 599.711 11.0411 599.255 10.8321L592.355 7.64464L589.168 0.744643Z" fill="#F4E4BA"/>
<path d="M661.168 0.744643C660.959 0.289286 660.504 0 660 0C659.496 0 659.041 0.289286 658.832 0.744643L655.645 7.64464L648.745 10.8321C648.289 11.0411 648 11.4964 648 12C648 12.5036 648.289 12.9589 648.745 13.1679L655.645 16.3554L658.832 23.2554C659.041 23.7107 659.496 24 660 24C660.504 24 660.959 23.7107 661.168 23.2554L664.355 16.3554L671.255 13.1679C671.711 12.9589 672 12.5036 672 12C672 11.4964 671.711 11.0411 671.255 10.8321L664.355 7.64464L661.168 0.744643Z" fill="#F4E4BA"/>
<path d="M733.168 0.744643C732.959 0.289286 732.504 0 732 0C731.496 0 731.041 0.289286 730.832 0.744643L727.645 7.64464L720.745 10.8321C720.289 11.0411 720 11.4964 720 12C720 12.5036 720.289 12.9589 720.745 13.1679L727.645 16.3554L730.832 23.2554C731.041 23.7107 731.496 24 732 24C732.504 24 732.959 23.7107 733.168 23.2554L736.355 16.3554L743.255 13.1679C743.711 12.9589 744 12.5036 744 12C744 11.4964 743.711 11.0411 743.255 10.8321L736.355 7.64464L733.168 0.744643Z" fill="#F4E4BA"/>
<path d="M805.168 0.744643C804.959 0.289286 804.504 0 804 0C803.496 0 803.041 0.289286 802.832 0.744643L799.645 7.64464L792.745 10.8321C792.289 11.0411 792 11.4964 792 12C792 12.5036 792.289 12.9589 792.745 13.1679L799.645 16.3554L802.832 23.2554C803.041 23.7107 803.496 24 804 24C804.504 24 804.959 23.7107 805.168 23.2554L808.355 16.3554L815.255 13.1679C815.711 12.9589 816 12.5036 816 12C816 11.4964 815.711 11.0411 815.255 10.8321L808.355 7.64464L805.168 0.744643Z" fill="#F4E4BA"/>
<path d="M877.168 0.744643C876.959 0.289286 876.504 0 876 0C875.496 0 875.041 0.289286 874.832 0.744643L871.645 7.64464L864.745 10.8321C864.289 11.0411 864 11.4964 864 12C864 12.5036 864.289 12.9589 864.745 13.1679L871.645 16.3554L874.832 23.2554C875.041 23.7107 875.496 24 876 24C876.504 24 876.959 23.7107 877.168 23.2554L880.355 16.3554L887.255 13.1679C887.711 12.9589 888 12.5036 888 12C888 11.4964 887.711 11.0411 887.255 10.8321L880.355 7.64464L877.168 0.744643Z" fill="#F4E4BA"/>
<path d="M949.168 0.744643C948.959 0.289286 948.504 0 948 0C947.496 0 947.041 0.289286 946.832 0.744643L943.645 7.64464L936.745 10.8321C936.289 11.0411 936 11.4964 936 12C936 12.5036 936.289 12.9589 936.745 13.1679L943.645 16.3554L946.832 23.2554C947.041 23.7107 947.496 24 948 24C948.504 24 948.959 23.7107 949.168 23.2554L952.355 16.3554L959.255 13.1679C959.711 12.9589 960 12.5036 960 12C960 11.4964 959.711 11.0411 959.255 10.8321L952.355 7.64464L949.168 0.744643Z" fill="#F4E4BA"/>
<path d="M1021.17 0.744643C1020.96 0.289286 1020.5 0 1020 0C1019.5 0 1019.04 0.289286 1018.83 0.744643L1015.64 7.64464L1008.74 10.8321C1008.29 11.0411 1008 11.4964 1008 12C1008 12.5036 1008.29 12.9589 1008.74 13.1679L1015.64 16.3554L1018.83 23.2554C1019.04 23.7107 1019.5 24 1020 24C1020.5 24 1020.96 23.7107 1021.17 23.2554L1024.36 16.3554L1031.26 13.1679C1031.71 12.9589 1032 12.5036 1032 12C1032 11.4964 1031.71 11.0411 1031.26 10.8321L1024.36 7.64464L1021.17 0.744643Z" fill="#F4E4BA"/>
<path d="M49.1679 48.7446C48.9589 48.2893 48.5036 48 48 48C47.4964 48 47.0411 48.2893 46.8321 48.7446L43.6446 55.6446L36.7446 58.8321C36.2893 59.0411 36 59.4964 36 60C36 60.5036 36.2893 60.9589 36.7446 61.1679L43.6446 64.3554L46.8321 71.2554C47.0411 71.7107 47.4964 72 48 72C48.5036 72 48.9589 71.7107 49.1679 71.2554L52.3554 64.3554L59.2554 61.1679C59.7107 60.9589 60 60.5036 60 60C60 59.4964 59.7107 59.0411 59.2554 58.8321L52.3554 55.6446L49.1679 48.7446Z" fill="#F4E4BA"/>
<path d="M121.168 48.7446C120.959 48.2893 120.504 48 120 48C119.496 48 119.041 48.2893 118.832 48.7446L115.645 55.6446L108.745 58.8321C108.289 59.0411 108 59.4964 108 60C108 60.5036 108.289 60.9589 108.745 61.1679L115.645 64.3554L118.832 71.2554C119.041 71.7107 119.496 72 120 72C120.504 72 120.959 71.7107 121.168 71.2554L124.355 64.3554L131.255 61.1679C131.711 60.9589 132 60.5036 132 60C132 59.4964 131.711 59.0411 131.255 58.8321L124.355 55.6446L121.168 48.7446Z" fill="#F4E4BA"/>
<path d="M193.168 48.7446C192.959 48.2893 192.504 48 192 48C191.496 48 191.041 48.2893 190.832 48.7446L187.645 55.6446L180.745 58.8321C180.289 59.0411 180 59.4964 180 60C180 60.5036 180.289 60.9589 180.745 61.1679L187.645 64.3554L190.832 71.2554C191.041 71.7107 191.496 72 192 72C192.504 72 192.959 71.7107 193.168 71.2554L196.355 64.3554L203.255 61.1679C203.711 60.9589 204 60.5036 204 60C204 59.4964 203.711 59.0411 203.255 58.8321L196.355 55.6446L193.168 48.7446Z" fill="#F4E4BA"/>
<path d="M265.168 48.7446C264.959 48.2893 264.504 48 264 48C263.496 48 263.041 48.2893 262.832 48.7446L259.645 55.6446L252.745 58.8321C252.289 59.0411 252 59.4964 252 60C252 60.5036 252.289 60.9589 252.745 61.1679L259.645 64.3554L262.832 71.2554C263.041 71.7107 263.496 72 264 72C264.504 72 264.959 71.7107 265.168 71.2554L268.355 64.3554L275.255 61.1679C275.711 60.9589 276 60.5036 276 60C276 59.4964 275.711 59.0411 275.255 58.8321L268.355 55.6446L265.168 48.7446Z" fill="#F4E4BA"/>
<path d="M337.168 48.7446C336.959 48.2893 336.504 48 336 48C335.496 48 335.041 48.2893 334.832 48.7446L331.645 55.6446L324.745 58.8321C324.289 59.0411 324 59.4964 324 60C324 60.5036 324.289 60.9589 324.745 61.1679L331.645 64.3554L334.832 71.2554C335.041 71.7107 335.496 72 336 72C336.504 72 336.959 71.7107 337.168 71.2554L340.355 64.3554L347.255 61.1679C347.711 60.9589 348 60.5036 348 60C348 59.4964 347.711 59.0411 347.255 58.8321L340.355 55.6446L337.168 48.7446Z" fill="#F4E4BA"/>
<path d="M409.168 48.7446C408.959 48.2893 408.504 48 408 48C407.496 48 407.041 48.2893 406.832 48.7446L403.645 55.6446L396.745 58.8321C396.289 59.0411 396 59.4964 396 60C396 60.5036 396.289 60.9589 396.745 61.1679L403.645 64.3554L406.832 71.2554C407.041 71.7107 407.496 72 408 72C408.504 72 408.959 71.7107 409.168 71.2554L412.355 64.3554L419.255 61.1679C419.711 60.9589 420 60.5036 420 60C420 59.4964 419.711 59.0411 419.255 58.8321L412.355 55.6446L409.168 48.7446Z" fill="#F4E4BA"/>
<path d="M481.168 48.7446C480.959 48.2893 480.504 48 480 48C479.496 48 479.041 48.2893 478.832 48.7446L475.645 55.6446L468.745 58.8321C468.289 59.0411 468 59.4964 468 60C468 60.5036 468.289 60.9589 468.745 61.1679L475.645 64.3554L478.832 71.2554C479.041 71.7107 479.496 72 480 72C480.504 72 480.959 71.7107 481.168 71.2554L484.355 64.3554L491.255 61.1679C491.711 60.9589 492 60.5036 492 60C492 59.4964 491.711 59.0411 491.255 58.8321L484.355 55.6446L481.168 48.7446Z" fill="#F4E4BA"/>
<path d="M553.168 48.7446C552.959 48.2893 552.504 48 552 48C551.496 48 551.041 48.2893 550.832 48.7446L547.645 55.6446L540.745 58.8321C540.289 59.0411 540 59.4964 540 60C540 60.5036 540.289 60.9589 540.745 61.1679L547.645 64.3554L550.832 71.2554C551.041 71.7107 551.496 72 552 72C552.504 72 552.959 71.7107 553.168 71.2554L556.355 64.3554L563.255 61.1679C563.711 60.9589 564 60.5036 564 60C564 59.4964 563.711 59.0411 563.255 58.8321L556.355 55.6446L553.168 48.7446Z" fill="#F4E4BA"/>
<path d="M625.168 48.7446C624.959 48.2893 624.504 48 624 48C623.496 48 623.041 48.2893 622.832 48.7446L619.645 55.6446L612.745 58.8321C612.289 59.0411 612 59.4964 612 60C612 60.5036 612.289 60.9589 612.745 61.1679L619.645 64.3554L622.832 71.2554C623.041 71.7107 623.496 72 624 72C624.504 72 624.959 71.7107 625.168 71.2554L628.355 64.3554L635.255 61.1679C635.711 60.9589 636 60.5036 636 60C636 59.4964 635.711 59.0411 635.255 58.8321L628.355 55.6446L625.168 48.7446Z" fill="#F4E4BA"/>
<path d="M697.168 48.7446C696.959 48.2893 696.504 48 696 48C695.496 48 695.041 48.2893 694.832 48.7446L691.645 55.6446L684.745 58.8321C684.289 59.0411 684 59.4964 684 60C684 60.5036 684.289 60.9589 684.745 61.1679L691.645 64.3554L694.832 71.2554C695.041 71.7107 695.496 72 696 72C696.504 72 696.959 71.7107 697.168 71.2554L700.355 64.3554L707.255 61.1679C707.711 60.9589 708 60.5036 708 60C708 59.4964 707.711 59.0411 707.255 58.8321L700.355 55.6446L697.168 48.7446Z" fill="#F4E4BA"/>
<path d="M769.168 48.7446C768.959 48.2893 768.504 48 768 48C767.496 48 767.041 48.2893 766.832 48.7446L763.645 55.6446L756.745 58.8321C756.289 59.0411 756 59.4964 756 60C756 60.5036 756.289 60.9589 756.745 61.1679L763.645 64.3554L766.832 71.2554C767.041 71.7107 767.496 72 768 72C768.504 72 768.959 71.7107 769.168 71.2554L772.355 64.3554L779.255 61.1679C779.711 60.9589 780 60.5036 780 60C780 59.4964 779.711 59.0411 779.255 58.8321L772.355 55.6446L769.168 48.7446Z" fill="#F4E4BA"/>
<path d="M841.168 48.7446C840.959 48.2893 840.504 48 840 48C839.496 48 839.041 48.2893 838.832 48.7446L835.645 55.6446L828.745 58.8321C828.289 59.0411 828 59.4964 828 60C828 60.5036 828.289 60.9589 828.745 61.1679L835.645 64.3554L838.832 71.2554C839.041 71.7107 839.496 72 840 72C840.504 72 840.959 71.7107 841.168 71.2554L844.355 64.3554L851.255 61.1679C851.711 60.9589 852 60.5036 852 60C852 59.4964 851.711 59.0411 851.255 58.8321L844.355 55.6446L841.168 48.7446Z" fill="#F4E4BA"/>
<path d="M913.168 48.7446C912.959 48.2893 912.504 48 912 48C911.496 48 911.041 48.2893 910.832 48.7446L907.645 55.6446L900.745 58.8321C900.289 59.0411 900 59.4964 900 60C900 60.5036 900.289 60.9589 900.745 61.1679L907.645 64.3554L910.832 71.2554C911.041 71.7107 911.496 72 912 72C912.504 72 912.959 71.7107 913.168 71.2554L916.355 64.3554L923.255 61.1679C923.711 60.9589 924 60.5036 924 60C924 59.4964 923.711 59.0411 923.255 58.8321L916.355 55.6446L913.168 48.7446Z" fill="#F4E4BA"/>
<path d="M985.168 48.7446C984.959 48.2893 984.504 48 984 48C983.496 48 983.041 48.2893 982.832 48.7446L979.645 55.6446L972.745 58.8321C972.289 59.0411 972 59.4964 972 60C972 60.5036 972.289 60.9589 972.745 61.1679L979.645 64.3554L982.832 71.2554C983.041 71.7107 983.496 72 984 72C984.504 72 984.959 71.7107 985.168 71.2554L988.355 64.3554L995.255 61.1679C995.711 60.9589 996 60.5036 996 60C996 59.4964 995.711 59.0411 995.255 58.8321L988.355 55.6446L985.168 48.7446Z" fill="#F4E4BA"/>
<path d="M13.1679 96.7446C12.9589 96.2893 12.5036 96 12 96C11.4964 96 11.0411 96.2893 10.8321 96.7446L7.64464 103.645L0.744643 106.832C0.289286 107.041 0 107.496 0 108C0 108.504 0.289286 108.959 0.744643 109.168L7.64464 112.355L10.8321 119.255C11.0411 119.711 11.4964 120 12 120C12.5036 120 12.9589 119.711 13.1679 119.255L16.3554 112.355L23.2554 109.168C23.7107 108.959 24 108.504 24 108C24 107.496 23.7107 107.041 23.2554 106.832L16.3554 103.645L13.1679 96.7446Z" fill="#F4E4BA"/>
<path d="M85.1679 96.7446C84.9589 96.2893 84.5036 96 84 96C83.4964 96 83.0411 96.2893 82.8321 96.7446L79.6446 103.645L72.7446 106.832C72.2893 107.041 72 107.496 72 108C72 108.504 72.2893 108.959 72.7446 109.168L79.6446 112.355L82.8321 119.255C83.0411 119.711 83.4964 120 84 120C84.5036 120 84.9589 119.711 85.1679 119.255L88.3554 112.355L95.2554 109.168C95.7107 108.959 96 108.504 96 108C96 107.496 95.7107 107.041 95.2554 106.832L88.3554 103.645L85.1679 96.7446Z" fill="#F4E4BA"/>
<path d="M157.168 96.7446C156.959 96.2893 156.504 96 156 96C155.496 96 155.041 96.2893 154.832 96.7446L151.645 103.645L144.745 106.832C144.289 107.041 144 107.496 144 108C144 108.504 144.289 108.959 144.745 109.168L151.645 112.355L154.832 119.255C155.041 119.711 155.496 120 156 120C156.504 120 156.959 119.711 157.168 119.255L160.355 112.355L167.255 109.168C167.711 108.959 168 108.504 168 108C168 107.496 167.711 107.041 167.255 106.832L160.355 103.645L157.168 96.7446Z" fill="#F4E4BA"/>
<path d="M229.168 96.7446C228.959 96.2893 228.504 96 228 96C227.496 96 227.041 96.2893 226.832 96.7446L223.645 103.645L216.745 106.832C216.289 107.041 216 107.496 216 108C216 108.504 216.289 108.959 216.745 109.168L223.645 112.355L226.832 119.255C227.041 119.711 227.496 120 228 120C228.504 120 228.959 119.711 229.168 119.255L232.355 112.355L239.255 109.168C239.711 108.959 240 108.504 240 108C240 107.496 239.711 107.041 239.255 106.832L232.355 103.645L229.168 96.7446Z" fill="#F4E4BA"/>
<path d="M301.168 96.7446C300.959 96.2893 300.504 96 300 96C299.496 96 299.041 96.2893 298.832 96.7446L295.645 103.645L288.745 106.832C288.289 107.041 288 107.496 288 108C288 108.504 288.289 108.959 288.745 109.168L295.645 112.355L298.832 119.255C299.041 119.711 299.496 120 300 120C300.504 120 300.959 119.711 301.168 119.255L304.355 112.355L311.255 109.168C311.711 108.959 312 108.504 312 108C312 107.496 311.711 107.041 311.255 106.832L304.355 103.645L301.168 96.7446Z" fill="#F4E4BA"/>
<path d="M373.168 96.7446C372.959 96.2893 372.504 96 372 96C371.496 96 371.041 96.2893 370.832 96.7446L367.645 103.645L360.745 106.832C360.289 107.041 360 107.496 360 108C360 108.504 360.289 108.959 360.745 109.168L367.645 112.355L370.832 119.255C371.041 119.711 371.496 120 372 120C372.504 120 372.959 119.711 373.168 119.255L376.355 112.355L383.255 109.168C383.711 108.959 384 108.504 384 108C384 107.496 383.711 107.041 383.255 106.832L376.355 103.645L373.168 96.7446Z" fill="#F4E4BA"/>
<path d="M445.168 96.7446C444.959 96.2893 444.504 96 444 96C443.496 96 443.041 96.2893 442.832 96.7446L439.645 103.645L432.745 106.832C432.289 107.041 432 107.496 432 108C432 108.504 432.289 108.959 432.745 109.168L439.645 112.355L442.832 119.255C443.041 119.711 443.496 120 444 120C444.504 120 444.959 119.711 445.168 119.255L448.355 112.355L455.255 109.168C455.711 108.959 456 108.504 456 108C456 107.496 455.711 107.041 455.255 106.832L448.355 103.645L445.168 96.7446Z" fill="#F4E4BA"/>
<path d="M517.168 96.7446C516.959 96.2893 516.504 96 516 96C515.496 96 515.041 96.2893 514.832 96.7446L511.645 103.645L504.745 106.832C504.289 107.041 504 107.496 504 108C504 108.504 504.289 108.959 504.745 109.168L511.645 112.355L514.832 119.255C515.041 119.711 515.496 120 516 120C516.504 120 516.959 119.711 517.168 119.255L520.355 112.355L527.255 109.168C527.711 108.959 528 108.504 528 108C528 107.496 527.711 107.041 527.255 106.832L520.355 103.645L517.168 96.7446Z" fill="#F4E4BA"/>
<path d="M589.168 96.7446C588.959 96.2893 588.504 96 588 96C587.496 96 587.041 96.2893 586.832 96.7446L583.645 103.645L576.745 106.832C576.289 107.041 576 107.496 576 108C576 108.504 576.289 108.959 576.745 109.168L583.645 112.355L586.832 119.255C587.041 119.711 587.496 120 588 120C588.504 120 588.959 119.711 589.168 119.255L592.355 112.355L599.255 109.168C599.711 108.959 600 108.504 600 108C600 107.496 599.711 107.041 599.255 106.832L592.355 103.645L589.168 96.7446Z" fill="#F4E4BA"/>
<path d="M661.168 96.7446C660.959 96.2893 660.504 96 660 96C659.496 96 659.041 96.2893 658.832 96.7446L655.645 103.645L648.745 106.832C648.289 107.041 648 107.496 648 108C648 108.504 648.289 108.959 648.745 109.168L655.645 112.355L658.832 119.255C659.041 119.711 659.496 120 660 120C660.504 120 660.959 119.711 661.168 119.255L664.355 112.355L671.255 109.168C671.711 108.959 672 108.504 672 108C672 107.496 671.711 107.041 671.255 106.832L664.355 103.645L661.168 96.7446Z" fill="#F4E4BA"/>
<path d="M733.168 96.7446C732.959 96.2893 732.504 96 732 96C731.496 96 731.041 96.2893 730.832 96.7446L727.645 103.645L720.745 106.832C720.289 107.041 720 107.496 720 108C720 108.504 720.289 108.959 720.745 109.168L727.645 112.355L730.832 119.255C731.041 119.711 731.496 120 732 120C732.504 120 732.959 119.711 733.168 119.255L736.355 112.355L743.255 109.168C743.711 108.959 744 108.504 744 108C744 107.496 743.711 107.041 743.255 106.832L736.355 103.645L733.168 96.7446Z" fill="#F4E4BA"/>
<path d="M805.168 96.7446C804.959 96.2893 804.504 96 804 96C803.496 96 803.041 96.2893 802.832 96.7446L799.645 103.645L792.745 106.832C792.289 107.041 792 107.496 792 108C792 108.504 792.289 108.959 792.745 109.168L799.645 112.355L802.832 119.255C803.041 119.711 803.496 120 804 120C804.504 120 804.959 119.711 805.168 119.255L808.355 112.355L815.255 109.168C815.711 108.959 816 108.504 816 108C816 107.496 815.711 107.041 815.255 106.832L808.355 103.645L805.168 96.7446Z" fill="#F4E4BA"/>
<path d="M877.168 96.7446C876.959 96.2893 876.504 96 876 96C875.496 96 875.041 96.2893 874.832 96.7446L871.645 103.645L864.745 106.832C864.289 107.041 864 107.496 864 108C864 108.504 864.289 108.959 864.745 109.168L871.645 112.355L874.832 119.255C875.041 119.711 875.496 120 876 120C876.504 120 876.959 119.711 877.168 119.255L880.355 112.355L887.255 109.168C887.711 108.959 888 108.504 888 108C888 107.496 887.711 107.041 887.255 106.832L880.355 103.645L877.168 96.7446Z" fill="#F4E4BA"/>
<path d="M949.168 96.7446C948.959 96.2893 948.504 96 948 96C947.496 96 947.041 96.2893 946.832 96.7446L943.645 103.645L936.745 106.832C936.289 107.041 936 107.496 936 108C936 108.504 936.289 108.959 936.745 109.168L943.645 112.355L946.832 119.255C947.041 119.711 947.496 120 948 120C948.504 120 948.959 119.711 949.168 119.255L952.355 112.355L959.255 109.168C959.711 108.959 960 108.504 960 108C960 107.496 959.711 107.041 959.255 106.832L952.355 103.645L949.168 96.7446Z" fill="#F4E4BA"/>
<path d="M1021.17 96.7446C1020.96 96.2893 1020.5 96 1020 96C1019.5 96 1019.04 96.2893 1018.83 96.7446L1015.64 103.645L1008.74 106.832C1008.29 107.041 1008 107.496 1008 108C1008 108.504 1008.29 108.959 1008.74 109.168L1015.64 112.355L1018.83 119.255C1019.04 119.711 1019.5 120 1020 120C1020.5 120 1020.96 119.711 1021.17 119.255L1024.36 112.355L1031.26 109.168C1031.71 108.959 1032 108.504 1032 108C1032 107.496 1031.71 107.041 1031.26 106.832L1024.36 103.645L1021.17 96.7446Z" fill="#F4E4BA"/>
<path d="M49.1679 144.745C48.9589 144.289 48.5036 144 48 144C47.4964 144 47.0411 144.289 46.8321 144.745L43.6446 151.645L36.7446 154.832C36.2893 155.041 36 155.496 36 156C36 156.504 36.2893 156.959 36.7446 157.168L43.6446 160.355L46.8321 167.255C47.0411 167.711 47.4964 168 48 168C48.5036 168 48.9589 167.711 49.1679 167.255L52.3554 160.355L59.2554 157.168C59.7107 156.959 60 156.504 60 156C60 155.496 59.7107 155.041 59.2554 154.832L52.3554 151.645L49.1679 144.745Z" fill="#F4E4BA"/>
<path d="M121.168 144.745C120.959 144.289 120.504 144 120 144C119.496 144 119.041 144.289 118.832 144.745L115.645 151.645L108.745 154.832C108.289 155.041 108 155.496 108 156C108 156.504 108.289 156.959 108.745 157.168L115.645 160.355L118.832 167.255C119.041 167.711 119.496 168 120 168C120.504 168 120.959 167.711 121.168 167.255L124.355 160.355L131.255 157.168C131.711 156.959 132 156.504 132 156C132 155.496 131.711 155.041 131.255 154.832L124.355 151.645L121.168 144.745Z" fill="#F4E4BA"/>
<path d="M193.168 144.745C192.959 144.289 192.504 144 192 144C191.496 144 191.041 144.289 190.832 144.745L187.645 151.645L180.745 154.832C180.289 155.041 180 155.496 180 156C180 156.504 180.289 156.959 180.745 157.168L187.645 160.355L190.832 167.255C191.041 167.711 191.496 168 192 168C192.504 168 192.959 167.711 193.168 167.255L196.355 160.355L203.255 157.168C203.711 156.959 204 156.504 204 156C204 155.496 203.711 155.041 203.255 154.832L196.355 151.645L193.168 144.745Z" fill="#F4E4BA"/>
<path d="M265.168 144.745C264.959 144.289 264.504 144 264 144C263.496 144 263.041 144.289 262.832 144.745L259.645 151.645L252.745 154.832C252.289 155.041 252 155.496 252 156C252 156.504 252.289 156.959 252.745 157.168L259.645 160.355L262.832 167.255C263.041 167.711 263.496 168 264 168C264.504 168 264.959 167.711 265.168 167.255L268.355 160.355L275.255 157.168C275.711 156.959 276 156.504 276 156C276 155.496 275.711 155.041 275.255 154.832L268.355 151.645L265.168 144.745Z" fill="#F4E4BA"/>
<path d="M337.168 144.745C336.959 144.289 336.504 144 336 144C335.496 144 335.041 144.289 334.832 144.745L331.645 151.645L324.745 154.832C324.289 155.041 324 155.496 324 156C324 156.504 324.289 156.959 324.745 157.168L331.645 160.355L334.832 167.255C335.041 167.711 335.496 168 336 168C336.504 168 336.959 167.711 337.168 167.255L340.355 160.355L347.255 157.168C347.711 156.959 348 156.504 348 156C348 155.496 347.711 155.041 347.255 154.832L340.355 151.645L337.168 144.745Z" fill="#F4E4BA"/>
<path d="M409.168 144.745C408.959 144.289 408.504 144 408 144C407.496 144 407.041 144.289 406.832 144.745L403.645 151.645L396.745 154.832C396.289 155.041 396 155.496 396 156C396 156.504 396.289 156.959 396.745 157.168L403.645 160.355L406.832 167.255C407.041 167.711 407.496 168 408 168C408.504 168 408.959 167.711 409.168 167.255L412.355 160.355L419.255 157.168C419.711 156.959 420 156.504 420 156C420 155.496 419.711 155.041 419.255 154.832L412.355 151.645L409.168 144.745Z" fill="#F4E4BA"/>
<path d="M481.168 144.745C480.959 144.289 480.504 144 480 144C479.496 144 479.041 144.289 478.832 144.745L475.645 151.645L468.745 154.832C468.289 155.041 468 155.496 468 156C468 156.504 468.289 156.959 468.745 157.168L475.645 160.355L478.832 167.255C479.041 167.711 479.496 168 480 168C480.504 168 480.959 167.711 481.168 167.255L484.355 160.355L491.255 157.168C491.711 156.959 492 156.504 492 156C492 155.496 491.711 155.041 491.255 154.832L484.355 151.645L481.168 144.745Z" fill="#F4E4BA"/>
<path d="M553.168 144.745C552.959 144.289 552.504 144 552 144C551.496 144 551.041 144.289 550.832 144.745L547.645 151.645L540.745 154.832C540.289 155.041 540 155.496 540 156C540 156.504 540.289 156.959 540.745 157.168L547.645 160.355L550.832 167.255C551.041 167.711 551.496 168 552 168C552.504 168 552.959 167.711 553.168 167.255L556.355 160.355L563.255 157.168C563.711 156.959 564 156.504 564 156C564 155.496 563.711 155.041 563.255 154.832L556.355 151.645L553.168 144.745Z" fill="#F4E4BA"/>
<path d="M625.168 144.745C624.959 144.289 624.504 144 624 144C623.496 144 623.041 144.289 622.832 144.745L619.645 151.645L612.745 154.832C612.289 155.041 612 155.496 612 156C612 156.504 612.289 156.959 612.745 157.168L619.645 160.355L622.832 167.255C623.041 167.711 623.496 168 624 168C624.504 168 624.959 167.711 625.168 167.255L628.355 160.355L635.255 157.168C635.711 156.959 636 156.504 636 156C636 155.496 635.711 155.041 635.255 154.832L628.355 151.645L625.168 144.745Z" fill="#F4E4BA"/>
<path d="M697.168 144.745C696.959 144.289 696.504 144 696 144C695.496 144 695.041 144.289 694.832 144.745L691.645 151.645L684.745 154.832C684.289 155.041 684 155.496 684 156C684 156.504 684.289 156.959 684.745 157.168L691.645 160.355L694.832 167.255C695.041 167.711 695.496 168 696 168C696.504 168 696.959 167.711 697.168 167.255L700.355 160.355L707.255 157.168C707.711 156.959 708 156.504 708 156C708 155.496 707.711 155.041 707.255 154.832L700.355 151.645L697.168 144.745Z" fill="#F4E4BA"/>
<path d="M769.168 144.745C768.959 144.289 768.504 144 768 144C767.496 144 767.041 144.289 766.832 144.745L763.645 151.645L756.745 154.832C756.289 155.041 756 155.496 756 156C756 156.504 756.289 156.959 756.745 157.168L763.645 160.355L766.832 167.255C767.041 167.711 767.496 168 768 168C768.504 168 768.959 167.711 769.168 167.255L772.355 160.355L779.255 157.168C779.711 156.959 780 156.504 780 156C780 155.496 779.711 155.041 779.255 154.832L772.355 151.645L769.168 144.745Z" fill="#F4E4BA"/>
<path d="M841.168 144.745C840.959 144.289 840.504 144 840 144C839.496 144 839.041 144.289 838.832 144.745L835.645 151.645L828.745 154.832C828.289 155.041 828 155.496 828 156C828 156.504 828.289 156.959 828.745 157.168L835.645 160.355L838.832 167.255C839.041 167.711 839.496 168 840 168C840.504 168 840.959 167.711 841.168 167.255L844.355 160.355L851.255 157.168C851.711 156.959 852 156.504 852 156C852 155.496 851.711 155.041 851.255 154.832L844.355 151.645L841.168 144.745Z" fill="#F4E4BA"/>
<path d="M913.168 144.745C912.959 144.289 912.504 144 912 144C911.496 144 911.041 144.289 910.832 144.745L907.645 151.645L900.745 154.832C900.289 155.041 900 155.496 900 156C900 156.504 900.289 156.959 900.745 157.168L907.645 160.355L910.832 167.255C911.041 167.711 911.496 168 912 168C912.504 168 912.959 167.711 913.168 167.255L916.355 160.355L923.255 157.168C923.711 156.959 924 156.504 924 156C924 155.496 923.711 155.041 923.255 154.832L916.355 151.645L913.168 144.745Z" fill="#F4E4BA"/>
<path d="M985.168 144.745C984.959 144.289 984.504 144 984 144C983.496 144 983.041 144.289 982.832 144.745L979.645 151.645L972.745 154.832C972.289 155.041 972 155.496 972 156C972 156.504 972.289 156.959 972.745 157.168L979.645 160.355L982.832 167.255C983.041 167.711 983.496 168 984 168C984.504 168 984.959 167.711 985.168 167.255L988.355 160.355L995.255 157.168C995.711 156.959 996 156.504 996 156C996 155.496 995.711 155.041 995.255 154.832L988.355 151.645L985.168 144.745Z" fill="#F4E4BA"/>
<path d="M13.1679 192.745C12.9589 192.289 12.5036 192 12 192C11.4964 192 11.0411 192.289 10.8321 192.745L7.64464 199.645L0.744643 202.832C0.289286 203.041 0 203.496 0 204C0 204.504 0.289286 204.959 0.744643 205.168L7.64464 208.355L10.8321 215.255C11.0411 215.711 11.4964 216 12 216C12.5036 216 12.9589 215.711 13.1679 215.255L16.3554 208.355L23.2554 205.168C23.7107 204.959 24 204.504 24 204C24 203.496 23.7107 203.041 23.2554 202.832L16.3554 199.645L13.1679 192.745Z" fill="#F4E4BA"/>
<path d="M85.1679 192.745C84.9589 192.289 84.5036 192 84 192C83.4964 192 83.0411 192.289 82.8321 192.745L79.6446 199.645L72.7446 202.832C72.2893 203.041 72 203.496 72 204C72 204.504 72.2893 204.959 72.7446 205.168L79.6446 208.355L82.8321 215.255C83.0411 215.711 83.4964 216 84 216C84.5036 216 84.9589 215.711 85.1679 215.255L88.3554 208.355L95.2554 205.168C95.7107 204.959 96 204.504 96 204C96 203.496 95.7107 203.041 95.2554 202.832L88.3554 199.645L85.1679 192.745Z" fill="#F4E4BA"/>
<path d="M157.168 192.745C156.959 192.289 156.504 192 156 192C155.496 192 155.041 192.289 154.832 192.745L151.645 199.645L144.745 202.832C144.289 203.041 144 203.496 144 204C144 204.504 144.289 204.959 144.745 205.168L151.645 208.355L154.832 215.255C155.041 215.711 155.496 216 156 216C156.504 216 156.959 215.711 157.168 215.255L160.355 208.355L167.255 205.168C167.711 204.959 168 204.504 168 204C168 203.496 167.711 203.041 167.255 202.832L160.355 199.645L157.168 192.745Z" fill="#F4E4BA"/>
<path d="M229.168 192.745C228.959 192.289 228.504 192 228 192C227.496 192 227.041 192.289 226.832 192.745L223.645 199.645L216.745 202.832C216.289 203.041 216 203.496 216 204C216 204.504 216.289 204.959 216.745 205.168L223.645 208.355L226.832 215.255C227.041 215.711 227.496 216 228 216C228.504 216 228.959 215.711 229.168 215.255L232.355 208.355L239.255 205.168C239.711 204.959 240 204.504 240 204C240 203.496 239.711 203.041 239.255 202.832L232.355 199.645L229.168 192.745Z" fill="#F4E4BA"/>
<path d="M301.168 192.745C300.959 192.289 300.504 192 300 192C299.496 192 299.041 192.289 298.832 192.745L295.645 199.645L288.745 202.832C288.289 203.041 288 203.496 288 204C288 204.504 288.289 204.959 288.745 205.168L295.645 208.355L298.832 215.255C299.041 215.711 299.496 216 300 216C300.504 216 300.959 215.711 301.168 215.255L304.355 208.355L311.255 205.168C311.711 204.959 312 204.504 312 204C312 203.496 311.711 203.041 311.255 202.832L304.355 199.645L301.168 192.745Z" fill="#F4E4BA"/>
<path d="M373.168 192.745C372.959 192.289 372.504 192 372 192C371.496 192 371.041 192.289 370.832 192.745L367.645 199.645L360.745 202.832C360.289 203.041 360 203.496 360 204C360 204.504 360.289 204.959 360.745 205.168L367.645 208.355L370.832 215.255C371.041 215.711 371.496 216 372 216C372.504 216 372.959 215.711 373.168 215.255L376.355 208.355L383.255 205.168C383.711 204.959 384 204.504 384 204C384 203.496 383.711 203.041 383.255 202.832L376.355 199.645L373.168 192.745Z" fill="#F4E4BA"/>
<path d="M445.168 192.745C444.959 192.289 444.504 192 444 192C443.496 192 443.041 192.289 442.832 192.745L439.645 199.645L432.745 202.832C432.289 203.041 432 203.496 432 204C432 204.504 432.289 204.959 432.745 205.168L439.645 208.355L442.832 215.255C443.041 215.711 443.496 216 444 216C444.504 216 444.959 215.711 445.168 215.255L448.355 208.355L455.255 205.168C455.711 204.959 456 204.504 456 204C456 203.496 455.711 203.041 455.255 202.832L448.355 199.645L445.168 192.745Z" fill="#F4E4BA"/>
<path d="M517.168 192.745C516.959 192.289 516.504 192 516 192C515.496 192 515.041 192.289 514.832 192.745L511.645 199.645L504.745 202.832C504.289 203.041 504 203.496 504 204C504 204.504 504.289 204.959 504.745 205.168L511.645 208.355L514.832 215.255C515.041 215.711 515.496 216 516 216C516.504 216 516.959 215.711 517.168 215.255L520.355 208.355L527.255 205.168C527.711 204.959 528 204.504 528 204C528 203.496 527.711 203.041 527.255 202.832L520.355 199.645L517.168 192.745Z" fill="#F4E4BA"/>
<path d="M589.168 192.745C588.959 192.289 588.504 192 588 192C587.496 192 587.041 192.289 586.832 192.745L583.645 199.645L576.745 202.832C576.289 203.041 576 203.496 576 204C576 204.504 576.289 204.959 576.745 205.168L583.645 208.355L586.832 215.255C587.041 215.711 587.496 216 588 216C588.504 216 588.959 215.711 589.168 215.255L592.355 208.355L599.255 205.168C599.711 204.959 600 204.504 600 204C600 203.496 599.711 203.041 599.255 202.832L592.355 199.645L589.168 192.745Z" fill="#F4E4BA"/>
<path d="M661.168 192.745C660.959 192.289 660.504 192 660 192C659.496 192 659.041 192.289 658.832 192.745L655.645 199.645L648.745 202.832C648.289 203.041 648 203.496 648 204C648 204.504 648.289 204.959 648.745 205.168L655.645 208.355L658.832 215.255C659.041 215.711 659.496 216 660 216C660.504 216 660.959 215.711 661.168 215.255L664.355 208.355L671.255 205.168C671.711 204.959 672 204.504 672 204C672 203.496 671.711 203.041 671.255 202.832L664.355 199.645L661.168 192.745Z" fill="#F4E4BA"/>
<path d="M733.168 192.745C732.959 192.289 732.504 192 732 192C731.496 192 731.041 192.289 730.832 192.745L727.645 199.645L720.745 202.832C720.289 203.041 720 203.496 720 204C720 204.504 720.289 204.959 720.745 205.168L727.645 208.355L730.832 215.255C731.041 215.711 731.496 216 732 216C732.504 216 732.959 215.711 733.168 215.255L736.355 208.355L743.255 205.168C743.711 204.959 744 204.504 744 204C744 203.496 743.711 203.041 743.255 202.832L736.355 199.645L733.168 192.745Z" fill="#F4E4BA"/>
<path d="M805.168 192.745C804.959 192.289 804.504 192 804 192C803.496 192 803.041 192.289 802.832 192.745L799.645 199.645L792.745 202.832C792.289 203.041 792 203.496 792 204C792 204.504 792.289 204.959 792.745 205.168L799.645 208.355L802.832 215.255C803.041 215.711 803.496 216 804 216C804.504 216 804.959 215.711 805.168 215.255L808.355 208.355L815.255 205.168C815.711 204.959 816 204.504 816 204C816 203.496 815.711 203.041 815.255 202.832L808.355 199.645L805.168 192.745Z" fill="#F4E4BA"/>
<path d="M877.168 192.745C876.959 192.289 876.504 192 876 192C875.496 192 875.041 192.289 874.832 192.745L871.645 199.645L864.745 202.832C864.289 203.041 864 203.496 864 204C864 204.504 864.289 204.959 864.745 205.168L871.645 208.355L874.832 215.255C875.041 215.711 875.496 216 876 216C876.504 216 876.959 215.711 877.168 215.255L880.355 208.355L887.255 205.168C887.711 204.959 888 204.504 888 204C888 203.496 887.711 203.041 887.255 202.832L880.355 199.645L877.168 192.745Z" fill="#F4E4BA"/>
<path d="M949.168 192.745C948.959 192.289 948.504 192 948 192C947.496 192 947.041 192.289 946.832 192.745L943.645 199.645L936.745 202.832C936.289 203.041 936 203.496 936 204C936 204.504 936.289 204.959 936.745 205.168L943.645 208.355L946.832 215.255C947.041 215.711 947.496 216 948 216C948.504 216 948.959 215.711 949.168 215.255L952.355 208.355L959.255 205.168C959.711 204.959 960 204.504 960 204C960 203.496 959.711 203.041 959.255 202.832L952.355 199.645L949.168 192.745Z" fill="#F4E4BA"/>
<path d="M1021.17 192.745C1020.96 192.289 1020.5 192 1020 192C1019.5 192 1019.04 192.289 1018.83 192.745L1015.64 199.645L1008.74 202.832C1008.29 203.041 1008 203.496 1008 204C1008 204.504 1008.29 204.959 1008.74 205.168L1015.64 208.355L1018.83 215.255C1019.04 215.711 1019.5 216 1020 216C1020.5 216 1020.96 215.711 1021.17 215.255L1024.36 208.355L1031.26 205.168C1031.71 204.959 1032 204.504 1032 204C1032 203.496 1031.71 203.041 1031.26 202.832L1024.36 199.645L1021.17 192.745Z" fill="#F4E4BA"/>
</svg>