<svg width="72" height="216" viewBox="0 0 72 216" fill="none" xmlns="http://www.w3.org/2000/svg">
<path d="M61.1678 0.744643C60.9589 0.289286 60.5036 0 60 0C59.4964 0 59.0411 0.289286 58.8322 0.744643L55.6447 7.64464L48.7446 10.8321C48.2893 11.0411 48 11.4964 48 12C48 12.5036 48.2893 12.9589 48.7446 13.1679L55.6447 16.3554L58.8322 23.2554C59.0411 23.7107 59.4964 24 60 24C60.5036 24 60.9589 23.7107 61.1678 23.2554L64.3553 16.3554L71.2554 13.1679C71.7107 12.9589 72 12.5036 72 12C72 11.4964 71.7107 11.0411 71.2554 10.8321L64.3553 7.64464L61.1678 0.744643Z" fill="#F4E4BA"/>
<path d="M25.1678 48.7446C24.9589 48.2893 24.5036 48 24 48C23.4964 48 23.0411 48.2893 22.8322 48.7446L19.6447 55.6446L12.7446 58.8321C12.2893 59.0411 12 59.4964 12 60C12 60.5036 12.2893 60.9589 12.7446 61.1679L19.6447 64.3554L22.8322 71.2554C23.0411 71.7107 23.4964 72 24 72C24.5036 72 24.9589 71.7107 25.1678 71.2554L28.3553 64.3554L35.2554 61.1679C35.7107 60.9589 36 60.5036 36 60C36 59.4964 35.7107 59.0411 35.2554 58.8321L28.3553 55.6446L25.1678 48.7446Z" fill="#F4E4BA"/>
<path d="M61.1678 96.7446C60.9589 96.2893 60.5036 96 60 96C59.4964 96 59.0411 96.2893 58.8322 96.7446L55.6447 103.645L48.7446 106.832C48.2893 107.041 48 107.496 48 108C48 108.504 48.2893 108.959 48.7446 109.168L55.6447 112.355L58.8322 119.255C59.0411 119.711 59.4964 120 60 120C60.5036 120 60.9589 119.711 61.1678 119.255L64.3553 112.355L71.2554 109.168C71.7107 108.959 72 108.504 72 108C72 107.496 71.7107 107.041 71.2554 106.832L64.3553 103.645L61.1678 96.7446Z" fill="#F4E4BA"/>
<path d="M25.1678 144.745C24.9589 144.289 24.5036 144 24 144C23.4964 144 23.0411 144.289 22.8322 144.745L19.6447 151.645L12.7446 154.832C12.2893 155.041 12 155.496 12 156C12 156.504 12.2893 156.959 12.7446 157.168L19.6447 160.355L22.8322 167.255C23.0411 167.711 23.4964 168 24 168C24.5036 168 24.9589 167.711 25.1678 167.255L28.3553 160.355L35.2554 157.168C35.7107 156.959 36 156.504 36 156C36 155.496 35.7107 155.041 35.2554 154.832L28.3553 151.645L25.1678 144.745Z" fill="#F4E4BA"/>
<path d="M61.1678 192.745C60.9589 192.289 60.5036 192 60 192C59.4964 192 59.0411 192.289 58.8322 192.745L55.6447 199.645L48.7446 202.832C48.2893 203.041 48 203.496 48 204C48 204.504 48.2893 204.959 48.7446 205.168L55.6447 208.355L58.8322 215.255C59.0411 215.711 59.4964 216 60 216C60.5036 216 60.9589 215.711 61.1678 215.255L64.3553 208.355L71.2554 205.168C71.7107 204.959 72 204.504 72 204C72 203.496 71.7107 203.041 71.2554 202.832L64.3553 199.645L61.1678 192.745Z" fill="#F4E4BA"/>
</svg>