<svg width="72" height="192" viewBox="0 0 72 192" fill="none" xmlns="http://www.w3.org/2000/svg">
<path d="M13.1679 0.744643C12.9589 0.289286 12.5036 0 12 0C11.4964 0 11.0411 0.289286 10.8321 0.744643L7.64464 7.64464L0.744643 10.8321C0.289286 11.0411 0 11.4964 0 12C0 12.5036 0.289286 12.9589 0.744643 13.1679L7.64464 16.3554L10.8321 23.2554C11.0411 23.7107 11.4964 24 12 24C12.5036 24 12.9589 23.7107 13.1679 23.2554L16.3554 16.3554L23.2554 13.1679C23.7107 12.9589 24 12.5036 24 12C24 11.4964 23.7107 11.0411 23.2554 10.8321L16.3554 7.64464L13.1679 0.744643Z" fill="#F4E4BA"/>
<path d="M49.1679 48.7446C48.9589 48.2893 48.5036 48 48 48C47.4964 48 47.0411 48.2893 46.8321 48.7446L43.6446 55.6446L36.7446 58.8321C36.2893 59.0411 36 59.4964 36 60C36 60.5036 36.2893 60.9589 36.7446 61.1679L43.6446 64.3554L46.8321 71.2554C47.0411 71.7107 47.4964 72 48 72C48.5036 72 48.9589 71.7107 49.1679 71.2554L52.3554 64.3554L59.2554 61.1679C59.7107 60.9589 60 60.5036 60 60C60 59.4964 59.7107 59.0411 59.2554 58.8321L52.3554 55.6446L49.1679 48.7446Z" fill="#F4E4BA"/>
<path d="M13.1679 96.7446C12.9589 96.2893 12.5036 96 12 96C11.4964 96 11.0411 96.2893 10.8321 96.7446L7.64464 103.645L0.744643 106.832C0.289286 107.041 0 107.496 0 108C0 108.504 0.289286 108.959 0.744643 109.168L7.64464 112.355L10.8321 119.255C11.0411 119.711 11.4964 120 12 120C12.5036 120 12.9589 119.711 13.1679 119.255L16.3554 112.355L23.2554 109.168C23.7107 108.959 24 108.504 24 108C24 107.496 23.7107 107.041 23.2554 106.832L16.3554 103.645L13.1679 96.7446Z" fill="#F4E4BA"/>
<path d="M49.1679 144.745C48.9589 144.289 48.5036 144 48 144C47.4964 144 47.0411 144.289 46.8321 144.745L43.6446 151.645L36.7446 154.832C36.2893 155.041 36 155.496 36 156C36 156.504 36.2893 156.959 36.7446 157.168L43.6446 160.355L46.8321 167.255C47.0411 167.711 47.4964 168 48 168C48.5036 168 48.9589 167.711 49.1679 167.255L52.3554 160.355L59.2554 157.168C59.7107 156.959 60 156.504 60 156C60 155.496 59.7107 155.041 59.2554 154.832L52.3554 151.645L49.1679 144.745Z" fill="#F4E4BA"/>
</svg>
